HIERARCHY
ROOT Hips
{
	OFFSET -0.001795 -0.223333 0.028219
	CHANNELS 6 Xposition Yposition Zposition Zrotation Yrotation Xrotation 
	JOINT LeftUpLeg
	{
		OFFSET 0.069520 -0.091406 -0.006815
		CHANNELS 3 Zrotation Yrotation Xrotation
		JOINT LeftLeg
		{
			OFFSET 0.034277 -0.375199 -0.004496
			CHANNELS 3 Zrotation Yrotation Xrotation
			JOINT LeftFoot
			{
				OFFSET -0.013596 -0.397961 -0.043693
				CHANNELS 3 Zrotation Yrotation Xrotation
				JOINT LeftToe
				{
					OFFSET 0.026358 -0.055791 0.119288
					CHANNELS 3 Zrotation Yrotation Xrotation
					End Site
					{
						OFFSET 0.000000 0.000000 0.000000
					}
				}
			}
		}
	}
	JOINT RightUpLeg
	{
		OFFSET -0.067670 -0.090522 -0.004320
		CHANNELS 3 Zrotation Yrotation Xrotation
		JOINT RightLeg
		{
			OFFSET -0.038290 -0.382569 -0.008850
			CHANNELS 3 Zrotation Yrotation Xrotation
			JOINT RightFoot
			{
				OFFSET 0.015774 -0.398415 -0.042312
				CHANNELS 3 Zrotation Yrotation Xrotation
				JOINT RightToe
				{
					OFFSET -0.025372 -0.048144 0.123348
					CHANNELS 3 Zrotation Yrotation Xrotation
					End Site
					{
						OFFSET 0.000000 0.000000 0.000000
					}
				}
			}
		}
	}
	JOINT Spine
	{
		OFFSET -0.002533 0.108963 -0.026696
		CHANNELS 3 Zrotation Yrotation Xrotation
		JOINT Spine1
		{
			OFFSET 0.005487 0.135180 0.001092
			CHANNELS 3 Zrotation Yrotation Xrotation
			JOINT Spine2
			{
				OFFSET 0.001457 0.052922 0.025425
				CHANNELS 3 Zrotation Yrotation Xrotation
				JOINT Neck
				{
					OFFSET -0.002778 0.213870 -0.042857
					CHANNELS 3 Zrotation Yrotation Xrotation
					JOINT Head
					{
						OFFSET 0.005152 0.064970 0.051349
						CHANNELS 3 Zrotation Yrotation Xrotation
						End Site
						{
							OFFSET 0.000000 0.000000 0.000000
						}
					}
				}
				JOINT LeftShoulder
				{
					OFFSET 0.078845 0.121749 -0.034090
					CHANNELS 3 Zrotation Yrotation Xrotation
					JOINT LeftArm
					{
						OFFSET 0.090977 0.030469 -0.008868
						CHANNELS 3 Zrotation Yrotation Xrotation
						JOINT LeftForeArm
						{
							OFFSET 0.259612 -0.012772 -0.027456
							CHANNELS 3 Zrotation Yrotation Xrotation
							JOINT LeftHand
							{
								OFFSET 0.249234 0.008986 -0.001171
								CHANNELS 3 Zrotation Yrotation Xrotation
								End Site
								{
									OFFSET 0.000000 0.000000 0.000000
								}
							}
						}
					}
				}
				JOINT RightShoulder
				{
					OFFSET -0.081759 0.118833 -0.038615
					CHANNELS 3 Zrotation Yrotation Xrotation
					JOINT RightArm
					{
						OFFSET -0.096012 0.032551 -0.009143
						CHANNELS 3 Zrotation Yrotation Xrotation
						JOINT RightForeArm
						{
							OFFSET -0.253742 -0.013329 -0.021401
							CHANNELS 3 Zrotation Yrotation Xrotation
							JOINT RightHand
							{
								OFFSET -0.255298 0.007772 -0.005559
								CHANNELS 3 Zrotation Yrotation Xrotation
								End Site
								{
									OFFSET 0.000000 0.000000 0.000000
								}
							}
						}
					}
				}
			}
		}
	}
}
MOTION
Frames: 7
Frame Time: 0.050000
0.000000 0.721885 0.000000 -5.258629 -11.445471 7.109344 4.174987 0.997689 -67.610904 -2.731405 2.936146 82.823431 7.441162 13.450180 -11.563835 0.000000 0.000000 0.000000 -7.936128 5.926946 -58.578087 31.827327 -20.315131 70.863390 -15.754968 -44.604815 -11.676342 0.000000 0.000000 0.000000 -8.664378 6.317914 59.181779 -2.872681 1.007957 -24.343738 -2.711608 5.822871 22.164690 7.441328 -4.527276 -11.291148 0.000000 0.000000 0.000000 4.183576 -26.387115 8.360538 4.339828 -20.915336 -1.864984 124.702169 -32.863770 -56.451978 0.000000 0.000000 0.000000 11.011015 12.013073 5.631014 5.171508 34.187401 -1.952937 -121.360647 18.427007 -24.329463 0.000000 0.000000 0.000000 
-0.000393 0.720334 0.005573 -6.379073 -9.628138 8.712225 2.257445 -1.029346 -68.754481 0.744908 -1.665879 84.820058 7.353685 12.873992 -13.787668 0.000000 0.000000 0.000000 -9.365974 4.872391 -60.184454 36.295572 -24.116759 68.329940 -16.022666 -43.063504 -8.839800 0.000000 0.000000 0.000000 -7.498516 5.192272 60.569883 -0.575914 0.583009 -26.268735 -2.184543 8.549945 23.758390 10.272005 -4.578813 -19.144579 0.000000 0.000000 0.000000 6.487926 -26.230364 7.950594 6.982467 -21.940451 -2.393525 123.355294 -30.124610 -52.760106 0.000000 0.000000 0.000000 8.229767 6.826906 3.450541 7.941085 38.994988 -1.399618 -121.960009 21.702157 -27.199049 0.000000 0.000000 0.000000 
0.000142 0.720935 0.010775 -5.561237 -8.455930 8.816350 0.870024 -2.517868 -70.211507 1.392381 -3.037337 85.958637 7.300637 13.108710 -12.096741 0.000000 0.000000 0.000000 -9.759985 4.222989 -59.718633 33.722137 -22.624913 68.883485 -16.339301 -45.731646 -11.665253 0.000000 0.000000 0.000000 -6.902796 4.658622 62.884493 0.134059 0.529880 -28.753494 -3.955064 8.212496 25.888502 12.101765 -5.495909 -21.014073 0.000000 0.000000 0.000000 7.292497 -25.708997 7.634900 8.999701 -24.254076 -3.005453 120.914405 -30.794853 -51.850568 0.000000 0.000000 0.000000 8.678967 8.134632 4.151935 6.931365 39.287258 -1.754289 -126.973170 18.321930 -24.298719 0.000000 0.000000 0.000000 
0.001582 0.723400 0.016155 -6.237093 -9.940697 10.290618 0.249154 -2.218485 -70.906947 3.907688 -5.522288 85.586477 6.457925 10.769606 -12.387988 0.000000 0.000000 0.000000 -9.829706 5.004674 -62.301280 34.687316 -22.855212 68.206914 -19.227011 -48.687734 -6.022093 0.000000 0.000000 0.000000 -7.164435 5.711631 64.903263 0.209167 0.512276 -29.317061 -4.609737 8.084426 25.175102 12.443129 -5.774352 -20.560480 0.000000 0.000000 0.000000 8.594776 -24.000444 7.050407 10.385392 -25.127117 -3.364901 118.140217 -30.278924 -48.584624 0.000000 0.000000 0.000000 9.773487 6.687634 3.563326 5.683562 41.624278 -2.134469 -128.412701 17.540841 -23.804258 0.000000 0.000000 0.000000 
0.003808 0.724434 0.021514 -6.629582 -11.510402 11.217610 -1.010695 -2.319641 -71.126326 5.312224 -6.650024 85.234471 6.366410 10.238469 -13.406902 0.000000 0.000000 0.000000 -9.817216 5.582713 -62.279444 35.054376 -21.968429 66.608193 -19.733518 -50.278161 -6.179417 0.000000 0.000000 0.000000 -8.172276 7.202604 65.586462 0.255469 0.478771 -29.345215 -3.852133 8.199936 24.917013 11.469426 -5.318674 -19.532389 0.000000 0.000000 0.000000 7.289197 -23.572893 7.175955 11.535211 -25.174661 -3.544714 118.557990 -31.570393 -50.554772 0.000000 0.000000 0.000000 9.910159 7.340648 3.895353 6.354585 40.253151 -1.979102 -130.543258 17.774818 -25.255063 0.000000 0.000000 0.000000 
0.006991 0.725076 0.026824 -7.444895 -11.842327 12.185523 -1.759126 -2.625475 -71.571683 6.811170 -8.304752 85.022435 6.172763 9.931894 -12.624461 0.000000 0.000000 0.000000 -10.504153 5.425966 -62.627302 36.843810 -23.056433 65.798625 -20.346948 -50.901842 -5.252559 0.000000 0.000000 0.000000 -8.184851 7.557495 66.517925 1.091915 0.322452 -29.053520 -4.125914 8.129634 24.173262 12.717464 -5.811563 -20.765577 0.000000 0.000000 0.000000 6.639882 -24.132198 7.474161 11.083097 -23.989477 -3.271423 118.233696 -33.191742 -52.377385 0.000000 0.000000 0.000000 10.827764 7.264965 3.938320 5.807595 38.920321 -2.087514 -132.652465 19.093329 -29.412200 0.000000 0.000000 0.000000 
0.010442 0.726709 0.032420 -7.660761 -12.120389 12.992527 -2.109726 -2.686497 -71.225841 7.798699 -9.171041 84.343207 5.681680 8.177359 -13.894830 0.000000 0.000000 0.000000 -11.384269 5.180114 -63.306483 37.759097 -23.492663 65.013634 -19.796263 -49.699151 -5.111975 0.000000 0.000000 0.000000 -7.942435 7.734495 67.599402 1.756530 0.230193 -29.647232 -4.531280 7.221887 24.768884 13.484618 -6.133705 -22.050257 0.000000 0.000000 0.000000 6.961760 -23.558021 7.280750 9.595572 -23.180357 -2.934420 119.222626 -33.522420 -53.203780 0.000000 0.000000 0.000000 10.517989 6.716916 3.519239 8.376599 36.868734 -1.550129 -136.118433 20.629369 -35.409533 0.000000 0.000000 0.000000 
